:SAMPLES-PER-SECOND 24
:FULLY-SPECIFIED
:DEGREES
287
root  7.79145 37.9537 23.0278 4.99182 44.1966 -0.55072
RightUpLeg  -30.1843 -24.0002 -6.69635
RightLeg  17.9217 -14.4235 -5.12993
RightFoot  11.09 0.787191 -3.58093
RightToes  -2.08645e-008 3.77894e-005 6.81332e-007
Spine  6.47884 -1.18738 -7.09498
Spine1  7.46595 -3.31435 7.96437
HEad  -36.8072 -16.1312 3.94246
LeftShoulder1  8.39984 -14.1256 -41.3584
LeftArm  6.46241 22.3308 -24.6954
LeftForeArm  165.357 -69.7969 -153.054
LeftHand  -0.551598 -1.97419 8.88644
RightShoulder  4.09605 6.65622 34.4238
RightArm  2.96589 -25.8583 31.9577
RightForeArm  134.37 78.9401 121.323
RightHand  0.100381 10.2354 0.330638
LeftUpLeg  -7.13904 -9.09582 4.52238
LeftLeg  29.7005 7.07918 4.6955
LeftFoot  -22.949 -1.27356 -13.8232
LeftToes  1.24767e-006 1.47042e-008 1.32732e-009
288
root  7.71826 38.8194 22.9463 4.76721 48.3857 -2.22192
RightUpLeg  -26.1064 -4.70386 -13.0145
RightLeg  19.3843 -13.6716 -5.49496
RightFoot  12.407 0.0290828 0.270322
RightToes  -2.08645e-008 3.77894e-005 6.81332e-007
Spine  6.70471 -1.15269 -7.07989
Spine1  5.75963 -2.91626 6.90662
HEad  -37.0501 -18.4254 6.6121
LeftShoulder1  7.89902 -13.7094 -39.6996
LeftArm  7.36372 30.0519 -24.2733
LeftForeArm  166.502 -67.9722 -155.51
LeftHand  -0.499969 -2.49391 7.57543
RightShoulder  4.09144 6.66348 34.3498
RightArm  6.13675 -27.9642 33.945
RightForeArm  142.272 77.9633 128.689
RightHand  0.130724 10.261 0.551826
LeftUpLeg  -8.76606 -8.3057 7.07811
LeftLeg  27.0415 3.38359 2.21739
LeftFoot  -17.0144 -0.562167 -13.3359
LeftToes  1.24767e-006 1.47042e-008 1.32732e-009
289
root  7.6923 39.9451 23.0531 5.22009 54.3797 -3.56927
RightUpLeg  -24.1534 3.93785 -13.7531
RightLeg  21.3057 -11.7213 -5.197
RightFoot  13.5731 -0.536188 2.85167
RightToes  -2.08645e-008 3.77894e-005 6.81332e-007
Spine  5.52374 -2.41439 -7.52522
Spine1  5.09574 -4.14043 6.89626
HEad  -36.2102 -20.5856 8.39216
LeftShoulder1  7.43947 -13.3503 -38.0327
LeftArm  7.31148 36.7589 -23.083
LeftForeArm  167.185 -66.3283 -157.374
LeftHand  -0.388638 -2.81736 5.72456
RightShoulder  4.00991 6.59705 33.8126
RightArm  10.342 -29.9817 34.6979
RightForeArm  150.643 76.3281 136.874
RightHand  0.552573 10.8858 3.50224
LeftUpLeg  -10.4157 -8.9592 9.23498
LeftLeg  22.3602 -0.183425 0.225742
LeftFoot  -8.7699 0.360554 -13.6104
LeftToes  1.24767e-006 1.47042e-008 1.32732e-009
290
root  7.73712 40.9211 23.1953 6.20154 60.3763 -4.49066
RightUpLeg  -22.3531 3.08277 -11.6426
RightLeg  21.2547 -8.41884 -3.80844
RightFoot  13.0843 -1.14878 5.73019
RightToes  -2.08645e-008 3.77894e-005 6.81332e-007
Spine  3.80707 -3.77897 -7.56444
Spine1  4.41505 -5.39354 6.7993
HEad  -34.6104 -23.5582 9.36052
LeftShoulder1  7.30449 -13.3312 -37.3064
LeftArm  7.34293 41.0064 -20.8671
LeftForeArm  167.42 -64.893 -158.78
LeftHand  -0.330485 -2.82256 4.90033
RightShoulder  4.04237 6.62103 34.0369
RightArm  14.1075 -31.534 32.6493
RightForeArm  156.189 74.1896 143.802
RightHand  0.785084 11.2151 5.04005
LeftUpLeg  -11.8515 -7.31573 10.7609
LeftLeg  16.7852 -6.68697 -1.51151
LeftFoot  -1.39633 1.3316 -15.0858
LeftToes  1.24767e-006 1.47042e-008 1.32732e-009
291
root  7.80165 41.4257 23.2212 6.76636 63.7643 -5.15015
RightUpLeg  -21.1293 0.269028 -9.52862
RightLeg  20.2367 -6.20633 -2.7398
RightFoot  12.7765 -1.32336 6.60243
RightToes  -2.08645e-008 3.77894e-005 6.81332e-007
Spine  2.65532 -4.14851 -5.92361
Spine1  3.50319 -5.17734 4.56317
HEad  -33.2765 -26.663 9.88373
LeftShoulder1  7.16319 -13.3028 -36.5615
LeftArm  7.68019 42.2767 -19.4399
LeftForeArm  166.666 -64.286 -159.245
LeftHand  -0.286896 -2.47177 4.44777
RightShoulder  4.05572 6.60652 34.2252
RightArm  16.6983 -31.5866 30.0232
RightForeArm  154.979 73.231 145.714
RightHand  0.490755 10.3974 3.1786
LeftUpLeg  -12.4982 -2.98383 10.9121
LeftLeg  13.5129 -9.75996 -1.27166
LeftFoot  3.25336 2.07158 -16.2411
LeftToes  1.24767e-006 1.47042e-008 1.32732e-009
292
root  7.84541 41.3401 23.1232 6.14063 64.6235 -5.75958
RightUpLeg  -19.8151 0.0839215 -8.60278
RightLeg  19.4052 -7.96696 -3.3165
RightFoot  11.5664 -1.29231 6.7699
RightToes  -2.08645e-008 3.77894e-005 6.81332e-007
Spine  2.48848 -3.5978 -3.70141
Spine1  2.83408 -3.99529 1.8083
HEad  -32.7183 -28.8 10.2375
LeftShoulder1  6.82409 -13.0494 -35.1973
LeftArm  6.37826 41.8737 -20.8933
LeftForeArm  166.605 -64.3592 -159.176
LeftHand  -0.226912 -2.15856 3.68594
RightShoulder  3.95434 6.50625 33.6185
RightArm  18.287 -30.2084 28.2316
RightForeArm  151.063 73.4269 144.647
RightHand  0.470074 9.47322 3.25022
LeftUpLeg  -11.5901 -2.18361 10.7702
LeftLeg  13.3616 -3.35673 0.290482
LeftFoot  3.04076 1.96927 -15.6569
LeftToes  1.24767e-006 1.47042e-008 1.32732e-009
